# xmcd
#
# Track frame offsets:
#       150
#       19414
#       40555
#       41801
#       61131
#
# Disc length: 1108 seconds
#
# Revision: 0
# Processed by: cddbd v1.4PL0 Copyright (c) Steve Scherf et al.
# Submitted via: CD-DA_X-Tractor v0.21
#
DISCID=39045205
DTITLE=plan b - inside out
DYEAR=1900
DGENRE=
TTITLE0=intro
TTITLE1=sermonized
TTITLE2=golden lady
TTITLE3=brooklyn heights
TTITLE4=young and the rest of us
EXTD=
EXTT0=
EXTT1=
EXTT2=
EXTT3=
EXTT4=
PLAYORDER=
